<?xml version="1.0" encoding="UTF-8"?>
<svg width="566px" height="137px" viewBox="0 0 566 137" version="1.1" xmlns="http://www.w3.org/2000/svg" xmlns:xlink="http://www.w3.org/1999/xlink">
    <!-- Generator: Sketch 47.1 (45422) - http://www.bohemiancoding.com/sketch -->
    <title>Page 1</title>
    <desc>Created with Sketch.</desc>
    <defs>
        <polygon id="path-1" points="0.6346 0.083 27.082359 0.083 27.082359 39.1414 0.6346 39.1414 0.6346 0.083"></polygon>
        <polygon id="path-3" points="37 50.729 37 0.843 0.0664 0.843 0.0664 50.729"></polygon>
    </defs>
    <g id="Page-1" stroke="none" stroke-width="1" fill="none" fill-rule="evenodd">
        <g transform="translate(0.000000, -1.000000)">
            <g id="Group-8" transform="translate(0.000000, 0.917000)">
                <path d="M93.1084,101.478 C84.3814,81.582 75.5974,61.743 66.8414,41.847 C65.5904,39.025 63.5544,37.076 60.6464,35.942 C54.9164,33.731 49.2134,31.52 43.5124,29.31 C42.5824,28.932 41.6224,28.582 40.6914,28.204 C36.2984,26.488 31.9064,24.801 27.5144,23.114 C26.8454,27.651 26.9624,31.84 27.2234,34.866 C28.4454,34.72 29.6964,34.895 30.8884,35.389 C31.7324,35.738 32.4594,36.262 33.0994,36.873 C33.7104,37.425 34.2334,38.094 34.6124,38.822 C35.7464,40.829 36.0374,43.301 35.1354,45.512 C33.5934,49.352 28.9394,51.388 25.0714,49.934 C21.1154,48.421 18.9914,43.621 20.5904,39.694 C21.3184,37.891 22.7144,36.495 24.3734,35.68 C24.0234,32.364 23.8204,27.593 24.6344,22.357 C19.8644,21.688 15.7044,24.161 13.7264,29.106 C11.5454,34.575 9.4794,40.072 7.3274,45.57 C5.1744,51.155 3.0214,56.74 0.8394,62.296 C-0.2936,65.088 -0.2936,67.852 0.9274,70.586 C9.7124,90.54 18.4674,110.525 27.3104,130.479 C29.9584,136.414 35.5434,138.507 41.5054,135.89 C56.8644,129.17 72.1944,122.421 87.4954,115.615 C93.4284,112.998 95.6974,107.413 93.1084,101.478" id="Fill-1" fill="#33BB9C"></path>
                <path d="M27.2236,34.8657 C26.2346,34.9237 25.2446,35.2147 24.3726,35.6797 C24.0236,32.3637 23.8206,27.5937 24.6346,22.3577 C25.5366,22.4737 26.4666,22.7067 27.4266,23.0847 C27.4556,23.0847 27.4856,23.1137 27.5146,23.1137 C26.8456,27.6517 26.9616,31.8407 27.2236,34.8657" id="Fill-3" fill="#33BB9C"></path>
                <g id="Group-7" transform="translate(24.000000, 0.000000)">
                    <mask id="mask-2" fill="white">
                        <use xlink:href="#path-1"></use>
                    </mask>
                    <g id="Clip-6"></g>
                    <path d="M22.6836,24.3354 C21.6946,26.1094 20.5886,27.7684 19.5126,29.3094 C15.4116,35.0404 11.1356,38.9384 10.9026,39.1414 L10.6126,38.8214 L8.9546,36.9884 C8.9546,36.9884 9.0116,36.9304 9.0996,36.8724 C9.8556,36.1454 13.3176,32.8294 16.6916,28.2044 C17.8836,26.5754 19.1056,24.7724 20.1536,22.8804 C26.1736,12.3794 24.4286,6.1554 21.1136,4.0024 C18.0586,2.0534 12.8226,2.7804 9.0406,7.9874 C5.7836,12.8454 4.2126,18.1974 3.5146,23.1134 C3.4856,23.1134 3.4556,23.0844 3.4266,23.0844 C2.4666,22.7064 1.5366,22.4744 0.6346,22.3574 C1.4196,17.1794 3.1646,11.5074 6.6266,6.3004 C10.9026,0.4244 17.7966,-1.5826 22.6836,1.5594 C27.2796,4.5264 29.6946,12.0894 22.6836,24.3354" id="Fill-5" fill="#181818" mask="url(#mask-2)"></path>
                </g>
            </g>
            <g id="Group-13" transform="translate(14.000000, 61.917000)" fill="#FFFFFF">
                <path d="M47.4219,0.9424 L47.4219,47.2944 C47.4219,53.7204 42.2129,58.9304 35.7859,58.9304 L11.7879,58.9304 C5.3619,58.9304 0.1529,53.7204 0.1529,47.2944 L0.1529,0.9424 L47.4219,0.9424 Z" id="Fill-9"></path>
                <path d="M46.6943,14.3276 C44.6883,14.3276 43.0573,15.9586 43.0573,17.9636 L43.0573,38.5686 C43.0573,40.5736 44.6883,42.2046 46.6943,42.2046 L53.8453,42.2046 C55.8503,42.2046 57.4813,40.5736 57.4813,38.5686 L57.4813,17.9636 C57.4813,15.9586 55.8503,14.3276 53.8453,14.3276 L46.6943,14.3276 Z M53.8453,46.5676 L46.6943,46.5676 C42.2843,46.5676 38.6943,42.9786 38.6943,38.5686 L38.6943,17.9636 C38.6943,13.5526 42.2843,9.9646 46.6943,9.9646 L53.8453,9.9646 C58.2573,9.9646 61.8443,13.5526 61.8443,17.9636 L61.8443,38.5686 C61.8443,42.9786 58.2573,46.5676 53.8453,46.5676 L53.8453,46.5676 Z" id="Fill-11"></path>
            </g>
            <g id="Group-37" transform="translate(18.000000, 33.917000)">
                <path d="M9.5771,3.3857 C5.9591,3.3857 3.0161,6.3287 3.0161,9.9457 C3.0161,13.5637 5.9591,16.5067 9.5771,16.5067 C13.1941,16.5067 16.1381,13.5637 16.1381,9.9457 C16.1381,6.3287 13.1941,3.3857 9.5771,3.3857 M9.5771,19.4157 C4.3551,19.4157 0.1071,15.1667 0.1071,9.9457 C0.1071,4.7247 4.3551,0.4767 9.5771,0.4767 C14.7981,0.4767 19.0461,4.7247 19.0461,9.9457 C19.0461,15.1667 14.7981,19.4157 9.5771,19.4157" id="Fill-14" fill="#181818"></path>
                <polygon id="Fill-16" fill="#32BB9C" points="112.1572 65.729 99.9872 65.729 99.9872 15.916 109.6662 15.916 122.7602 35.2 135.8522 15.916 145.3882 15.916 145.3882 65.729 133.2922 65.729 133.2922 41.109 126.1042 51.711 119.3442 51.711 112.1572 40.966"></polygon>
                <path d="M151.4268,49.7173 L151.4268,15.9163 L163.5958,15.9163 L163.5958,49.6483 C163.5958,57.1203 177.6858,56.9783 177.6858,49.6483 L177.6858,15.9163 L189.8538,15.9163 L189.8538,49.7173 C189.8538,60.9623 180.1768,66.5143 170.5698,66.4413 C160.9618,66.4413 151.4268,60.9623 151.4268,49.7173" id="Fill-18" fill="#32BB9C"></path>
                <path d="M208.0605,40.894 C208.0605,49.363 213.6095,54.915 220.9395,54.915 C224.2855,54.915 228.1265,53.844 230.7605,50.288 L215.5325,50.288 L215.5325,39.4 L245.9885,39.4 C245.9885,45.164 244.9935,48.793 244.2095,50.645 C240.7235,60.177 230.2615,66.514 220.9395,66.514 C206.5645,66.514 195.7475,55.765 195.7475,40.894 C195.7475,25.949 206.8495,15.204 220.9395,15.204 C230.6185,15.204 243.7825,20.543 245.8455,36.197 L233.0385,36.197 C231.2585,29.082 225.4945,27.088 220.9395,27.088 C213.6095,27.088 208.0605,32.852 208.0605,40.894" id="Fill-20" fill="#32BB9C"></path>
                <path d="M259.4287,58.7534 L274.7997,58.7534 C279.6387,58.7534 282.0587,54.6984 282.0587,50.7834 C282.0587,46.8724 279.6387,42.8844 274.7997,42.8844 L259.4287,42.8844 L259.4287,58.7534 Z M259.4287,35.7694 L272.8787,35.7694 C280.7047,35.7694 280.8477,22.8184 273.0207,22.8184 L259.4287,22.8184 L259.4287,35.7694 Z M273.0207,15.9894 C279.2827,15.9894 283.2677,19.5464 285.1167,24.1704 C287.1117,29.0784 286.4697,34.7754 281.4887,38.3334 C287.1827,40.7514 289.2457,46.0184 289.2457,50.7144 C289.2457,58.1834 284.3357,65.7294 274.7997,65.7294 L252.3127,65.7294 L252.3127,15.9894 L273.0207,15.9894 Z" id="Fill-22" fill="#000000"></path>
                <path d="M307.9512,44.3081 L320.3322,44.3081 L314.2132,26.7301 L307.9512,44.3081 Z M323.1082,51.0691 L305.2472,51.0691 C303.3262,55.6231 300.8352,61.6021 299.2682,65.7291 L291.5132,65.7291 L311.5092,15.2731 L316.7752,15.2731 L336.7712,65.7291 L329.0852,65.7291 L323.1082,51.0691 Z" id="Fill-24" fill="#000000"></path>
                <path d="M350.21,40.4663 L358.606,40.4663 C364.654,40.4663 367.644,36.1243 367.644,31.7853 C367.644,27.5153 364.654,23.1733 358.606,23.1733 L347.577,23.1733 L347.577,65.7293 L340.46,65.7293 L340.46,15.9163 L358.606,15.9163 C369.423,15.9163 374.831,23.8853 374.831,31.7853 C374.831,38.8303 370.491,45.5173 361.95,47.0113 L377.677,65.7293 L368.356,65.7293 L350.21,43.8843 L350.21,40.4663 Z" id="Fill-26" fill="#000000"></path>
                <path d="M419.5127,33.7754 C417.5197,25.7364 409.8347,22.8184 403.5017,22.8184 C393.7517,22.8184 386.2087,30.4334 386.2087,40.8944 C386.2087,51.4234 393.7517,59.1844 403.5017,59.1844 C409.6207,59.1844 416.1677,56.3354 419.1577,49.0744 L400.7267,49.0744 L400.7267,41.8914 L427.5537,41.8914 C427.1977,46.0874 426.8417,48.8624 426.2017,50.4994 L426.2017,50.4294 C422.7847,59.9654 412.5387,66.0834 403.5017,66.0834 C389.5537,66.0834 379.0207,55.5504 379.0207,40.8944 C379.0207,26.1604 389.7677,15.6314 403.5017,15.6314 C413.0357,15.6314 424.5647,20.5404 427.1977,33.7754 L419.5127,33.7754 Z" id="Fill-28" fill="#000000"></path>
                <path d="M445.1191,44.3081 L457.5021,44.3081 L451.3831,26.7301 L445.1191,44.3081 Z M460.2781,51.0691 L442.4171,51.0691 C440.4961,55.6231 438.0051,61.6021 436.4381,65.7291 L428.6821,65.7291 L448.6791,15.2731 L453.9451,15.2731 L473.9411,65.7291 L466.2551,65.7291 L460.2781,51.0691 Z" id="Fill-30" fill="#000000"></path>
                <polygon id="Fill-32" fill="#000000" points="504.6699 23.1035 495.4189 23.1035 495.4189 58.5415 504.6699 58.5415 504.6699 65.7285 478.9819 65.7285 478.9819 58.5415 488.2319 58.5415 488.2319 23.1035 478.9819 23.1035 478.9819 15.9895 504.6699 15.9895"></polygon>
                <g id="Group-36" transform="translate(511.000000, 15.000000)">
                    <mask id="mask-4" fill="white">
                        <use xlink:href="#path-3"></use>
                    </mask>
                    <g id="Clip-35"></g>
                    <polygon id="Fill-34" fill="#000000" mask="url(#mask-4)" points="0.0664 50.729 0.0664 0.843 5.6164 0.916 29.8834 36 29.8834 0.916 37.0004 0.916 37.0004 50.729 31.3064 50.729 7.2544 15.93 7.2544 50.729"></polygon>
                </g>
            </g>
        </g>
    </g>
</svg>