<?xml version="1.0" encoding="UTF-8"?>
<svg width="71px" height="71px" viewBox="0 0 71 71" version="1.1" xmlns="http://www.w3.org/2000/svg" xmlns:xlink="http://www.w3.org/1999/xlink">
    <!-- Generator: Sketch 47.1 (45422) - http://www.bohemiancoding.com/sketch -->
    <title>Artboard 2</title>
    <desc>Created with Sketch.</desc>
    <defs></defs>
    <g id="Page-1" stroke="none" stroke-width="1" fill="none" fill-rule="evenodd">
        <g id="Artboard-2">
            <g id="Page-1" transform="translate(4.000000, 4.000000)">
                <path d="M63.0002,31.4999 C63.0002,48.8969 48.8972,62.9999 31.5002,62.9999 C14.1032,62.9999 0.0002,48.8969 0.0002,31.4999 C0.0002,14.1029 14.1032,-0.0001 31.5002,-0.0001 C48.8972,-0.0001 63.0002,14.1029 63.0002,31.4999" id="Fill-1" fill="#F04D3F"></path>
                <path d="M63.0002,31.4999 C63.0002,48.8969 48.8972,62.9999 31.5002,62.9999 C14.1032,62.9999 0.0002,48.8969 0.0002,31.4999 C0.0002,14.1029 14.1032,-0.0001 31.5002,-0.0001 C48.8972,-0.0001 63.0002,14.1029 63.0002,31.4999 Z" id="Stroke-3" stroke="#F04D3E" stroke-width="8"></path>
                <polygon id="Fill-5" fill="#FFFFFF" points="31.5002 4.2499 39.7042 20.8739 58.0492 23.5399 44.7742 36.4789 47.9082 54.7499 31.5002 46.1239 15.0912 54.7499 18.2252 36.4789 4.9502 23.5399 23.2952 20.8739"></polygon>
            </g>
        </g>
    </g>
</svg>