<?xml version="1.0" encoding="UTF-8"?>
<svg width="58px" height="70px" viewBox="0 0 58 70" version="1.1" xmlns="http://www.w3.org/2000/svg" xmlns:xlink="http://www.w3.org/1999/xlink">
    <!-- Generator: Sketch 47.1 (45422) - http://www.bohemiancoding.com/sketch -->
    <title>Artboard 3</title>
    <desc>Created with Sketch.</desc>
    <defs></defs>
    <g id="Page-1" stroke="none" stroke-width="1" fill="none" fill-rule="evenodd">
        <g id="Artboard-3">
            <g id="Page-1" transform="translate(0.000000, -1.000000)">
                <g id="Group-3" transform="translate(0.000000, 0.966900)" fill="#F34B3D">
                    <path d="M28.7553,0.0331 L0.0003,12.6221 L0.0003,29.9811 C0.0003,29.9811 0.0003,61.9831 28.7553,70.0001 C57.5103,61.9831 57.5103,29.9811 57.5103,29.9811 L57.5103,12.6221 L28.7553,0.0331 Z" id="Fill-1"></path>
                </g>
                <path d="M23.0458,50.5244 C18.6408,46.1204 14.1598,41.6404 9.7338,37.2154 C11.1118,35.8374 12.5498,34.3984 14.0848,32.8614 C17.0108,35.8164 19.9958,38.8314 23.0018,41.8664 C29.9248,34.9414 36.7098,28.1554 43.4208,21.4424 C44.9448,22.9654 46.3998,24.4194 47.7758,25.7944 C39.6038,33.9664 31.3018,42.2674 23.0458,50.5244" id="Fill-4" fill="#FFFFFF"></path>
            </g>
        </g>
    </g>
</svg>